<svg xmlns="http://www.w3.org/2000/svg" xmlns:xlink="http://www.w3.org/1999/xlink" contentStyleType="text/css" height="237px" preserveAspectRatio="none" style="width:568px;height:237px;background:#FFFFFF;" version="1.1" viewBox="0 0 568 237" width="568px" zoomAndPan="magnify"><defs/><g><line style="stroke:#181818;stroke-width:0.5;stroke-dasharray:5.0,5.0;" x1="41" x2="41" y1="36.2969" y2="201.9609"/><line style="stroke:#181818;stroke-width:0.5;stroke-dasharray:5.0,5.0;" x1="123" x2="123" y1="36.2969" y2="201.9609"/><line style="stroke:#181818;stroke-width:0.5;stroke-dasharray:5.0,5.0;" x1="205" x2="205" y1="36.2969" y2="201.9609"/><line style="stroke:#181818;stroke-width:0.5;stroke-dasharray:5.0,5.0;" x1="287" x2="287" y1="36.2969" y2="201.9609"/><line style="stroke:#181818;stroke-width:0.5;stroke-dasharray:5.0,5.0;" x1="432" x2="432" y1="36.2969" y2="201.9609"/><line style="stroke:#181818;stroke-width:0.5;stroke-dasharray:5.0,5.0;" x1="517" x2="517" y1="36.2969" y2="201.9609"/><rect fill="#E2E2F0" height="30.2969" rx="2.5" ry="2.5" style="stroke:#181818;stroke-width:0.5;" width="72" x="5" y="5"/><text fill="#000000" font-family="sans-serif" font-size="14" lengthAdjust="spacing" textLength="58" x="12" y="24.9951">Sensor1</text><rect fill="#E2E2F0" height="30.2969" rx="2.5" ry="2.5" style="stroke:#181818;stroke-width:0.5;" width="72" x="5" y="200.9609"/><text fill="#000000" font-family="sans-serif" font-size="14" lengthAdjust="spacing" textLength="58" x="12" y="220.9561">Sensor1</text><rect fill="#E2E2F0" height="30.2969" rx="2.5" ry="2.5" style="stroke:#181818;stroke-width:0.5;" width="72" x="87" y="5"/><text fill="#000000" font-family="sans-serif" font-size="14" lengthAdjust="spacing" textLength="58" x="94" y="24.9951">Sensor2</text><rect fill="#E2E2F0" height="30.2969" rx="2.5" ry="2.5" style="stroke:#181818;stroke-width:0.5;" width="72" x="87" y="200.9609"/><text fill="#000000" font-family="sans-serif" font-size="14" lengthAdjust="spacing" textLength="58" x="94" y="220.9561">Sensor2</text><rect fill="#E2E2F0" height="30.2969" rx="2.5" ry="2.5" style="stroke:#181818;stroke-width:0.5;" width="72" x="169" y="5"/><text fill="#000000" font-family="sans-serif" font-size="14" lengthAdjust="spacing" textLength="58" x="176" y="24.9951">Sensor3</text><rect fill="#E2E2F0" height="30.2969" rx="2.5" ry="2.5" style="stroke:#181818;stroke-width:0.5;" width="72" x="169" y="200.9609"/><text fill="#000000" font-family="sans-serif" font-size="14" lengthAdjust="spacing" textLength="58" x="176" y="220.9561">Sensor3</text><rect fill="#E2E2F0" height="30.2969" rx="2.5" ry="2.5" style="stroke:#181818;stroke-width:0.5;" width="72" x="251" y="5"/><text fill="#000000" font-family="sans-serif" font-size="14" lengthAdjust="spacing" textLength="58" x="258" y="24.9951">Sensor4</text><rect fill="#E2E2F0" height="30.2969" rx="2.5" ry="2.5" style="stroke:#181818;stroke-width:0.5;" width="72" x="251" y="200.9609"/><text fill="#000000" font-family="sans-serif" font-size="14" lengthAdjust="spacing" textLength="58" x="258" y="220.9561">Sensor4</text><rect fill="#E2E2F0" height="30.2969" rx="2.5" ry="2.5" style="stroke:#181818;stroke-width:0.5;" width="58" x="403" y="5"/><text fill="#000000" font-family="sans-serif" font-size="14" lengthAdjust="spacing" textLength="44" x="410" y="24.9951">Server</text><rect fill="#E2E2F0" height="30.2969" rx="2.5" ry="2.5" style="stroke:#181818;stroke-width:0.5;" width="58" x="403" y="200.9609"/><text fill="#000000" font-family="sans-serif" font-size="14" lengthAdjust="spacing" textLength="44" x="410" y="220.9561">Server</text><rect fill="#E2E2F0" height="30.2969" rx="2.5" ry="2.5" style="stroke:#181818;stroke-width:0.5;" width="90" x="472" y="5"/><text fill="#000000" font-family="sans-serif" font-size="14" lengthAdjust="spacing" textLength="76" x="479" y="24.9951">Dashboard</text><rect fill="#E2E2F0" height="30.2969" rx="2.5" ry="2.5" style="stroke:#181818;stroke-width:0.5;" width="90" x="472" y="200.9609"/><text fill="#000000" font-family="sans-serif" font-size="14" lengthAdjust="spacing" textLength="76" x="479" y="220.9561">Dashboard</text><polygon fill="#FF0000" points="420,63.4297,430,67.4297,420,71.4297,424,67.4297" style="stroke:#FF0000;stroke-width:1.0;"/><line style="stroke:#FF0000;stroke-width:1.0;" x1="41" x2="426" y1="67.4297" y2="67.4297"/><text fill="#000000" font-family="sans-serif" font-size="13" lengthAdjust="spacing" textLength="101" x="48" y="62.3638">23&#176;C - 00 01 23</text><polygon fill="#008000" points="420,92.5625,430,96.5625,420,100.5625,424,96.5625" style="stroke:#008000;stroke-width:1.0;"/><line style="stroke:#008000;stroke-width:1.0;" x1="123" x2="426" y1="96.5625" y2="96.5625"/><text fill="#000000" font-family="sans-serif" font-size="13" lengthAdjust="spacing" textLength="121" x="130" y="91.4966">23&#176;C - 00 02 00 23</text><polygon fill="#0000FF" points="420,121.6953,430,125.6953,420,129.6953,424,125.6953" style="stroke:#0000FF;stroke-width:1.0;"/><line style="stroke:#0000FF;stroke-width:1.0;" x1="205" x2="426" y1="125.6953" y2="125.6953"/><text fill="#000000" font-family="sans-serif" font-size="13" lengthAdjust="spacing" textLength="121" x="212" y="120.6294">27&#176;C - 00 03 03 00</text><polygon fill="#A52A2A" points="420,150.8281,430,154.8281,420,158.8281,424,154.8281" style="stroke:#A52A2A;stroke-width:1.0;"/><line style="stroke:#A52A2A;stroke-width:1.0;" x1="287" x2="426" y1="154.8281" y2="154.8281"/><text fill="#000000" font-family="sans-serif" font-size="13" lengthAdjust="spacing" textLength="121" x="294" y="149.7622">8765 - 00 04 87 65</text><polygon fill="#181818" points="505,179.9609,515,183.9609,505,187.9609,509,183.9609" style="stroke:#181818;stroke-width:1.0;"/><line style="stroke:#181818;stroke-width:1.0;" x1="432" x2="511" y1="183.9609" y2="183.9609"/><text fill="#000000" font-family="sans-serif" font-size="13" lengthAdjust="spacing" textLength="61" x="439" y="178.895">to display</text><!--SRC=[AqWiAibCpYn8p2jH24xDAyulCkGgm10pmY9cZ4NCX8iBQeXkj79HQagiNN1gKLbgaPM2aV6X3SuAkWe61We6Xa0UL9qHK5rwKMfg7dQLHY0IhjWOg3WffpGLIQqvGgqn61b0rPg0r1RbboCPR65kPWfLQmBaA9YPSa6aTErS4eipal8JYrAi54ho5L8oYmjo4Yi1]--></g></svg>